<svg xmlns="http://www.w3.org/2000/svg" width="36" height="42" viewBox="0 0 36 42">
    <defs>
        <filter id="b" width="149.4%" height="141.2%" x="-28.2%" y="-14.7%" filterUnits="objectBoundingBox">
            <feOffset dx="-1" dy="2" in="SourceAlpha" result="shadowOffsetOuter1"/>
            <feGaussianBlur in="shadowOffsetOuter1" result="shadowBlurOuter1" stdDeviation="2"/>
            <feColorMatrix in="shadowBlurOuter1" result="shadowMatrixOuter1" values="0 0 0 0 0 0 0 0 0 0 0 0 0 0 0 0 0 0 0.5 0"/>
            <feMerge>
                <feMergeNode in="shadowMatrixOuter1"/>
                <feMergeNode in="SourceGraphic"/>
            </feMerge>
        </filter>
        <linearGradient id="a" x1="64.559%" x2="22.622%" y1="30.295%" y2="100%">
            <stop offset="0%" stop-color="#201C1C"/>
            <stop offset="100%"/>
        </linearGradient>
    </defs>
    <path fill="url(#a)" fill-rule="nonzero" d="M27.079 2.318a2.32 2.32 0 0 0-2.318 2.318 2.32 2.32 0 0 1-2.318 2.317 2.32 2.32 0 0 1-2.318-2.317A4.642 4.642 0 0 0 15.491 0a4.642 4.642 0 0 0-4.636 4.636v3.09H8.538a.773.773 0 0 0-.773.773v1.685C3.122 12.065.039 16.596.039 21.633c0 6.816 5.546 12.362 12.362 12.362s12.36-5.546 12.36-12.362c0-5.038-3.081-9.568-7.725-11.449V8.5a.773.773 0 0 0-.772-.773H12.4v-3.09a3.092 3.092 0 0 1 3.09-3.09 3.091 3.091 0 0 1 3.089 3.09 3.868 3.868 0 0 0 3.863 3.863 3.867 3.867 0 0 0 3.863-3.863c0-.425.348-.773.773-.773a.773.773 0 0 0 0-1.545zM7.983 15.294c-3.495 2.437-4.356 7.261-1.92 10.758a.772.772 0 0 1-1.268.883 9.2 9.2 0 0 1-1.52-6.932A9.2 9.2 0 0 1 7.1 14.027a.771.771 0 1 1 .882 1.267z" filter="url(#b)" transform="translate(5.364 2.09)"/>
</svg>
